<svg id="Layer_1" enable-background="new 0 0 511.898 511.898" height="512" viewBox="0 0 511.898 511.898" width="512" xmlns="http://www.w3.org/2000/svg"><g><path d="m511.898 27.778v456.342c0 15.341-12.437 27.778-27.778 27.778h-456.342c-15.341 0-27.778-12.437-27.778-27.778v-456.342c0-15.341 12.437-27.778 27.778-27.778h456.342c15.341 0 27.778 12.437 27.778 27.778z" fill="#f4f1f1"/><path d="m484.12 0h-228.171v511.898h228.171c15.341 0 27.778-12.437 27.778-27.778v-456.342c0-15.341-12.437-27.778-27.778-27.778z" fill="#eceae7"/><g><path d="m218.038 271.876h-71.839c-8.796 0-15.927-7.131-15.927-15.927s7.131-15.927 15.927-15.927h71.839c8.796 0 15.927 7.131 15.927 15.927s-7.131 15.927-15.927 15.927z" fill="#eceae7"/></g><g><path d="m364.237 271.876h-71.839c-8.796 0-15.927-7.131-15.927-15.927s7.131-15.927 15.927-15.927h71.839c8.796 0 15.927 7.131 15.927 15.927s-7.13 15.927-15.927 15.927z" fill="#e7dfdd"/></g><path d="m63.558 395.898c-9.655 16.722-3.925 38.105 12.797 47.759 16.722 9.655 38.105 3.925 47.759-12.797l16.754-29.018-10.596-47.739-50.619 13.916z" fill="#fff"/><path d="m209.226 395.898c-9.655 16.722-3.925 38.105 12.797 47.759 16.722 9.655 38.105 3.925 47.759-12.797l16.754-29.018-15.24-40.104-45.974 6.281z" fill="#fff"/><path d="m354.895 395.898c-9.655 16.722-3.925 38.105 12.797 47.759 16.722 9.655 38.105 3.925 47.759-12.797l16.754-29.018-15.947-43.496-45.268 9.673z" fill="#f4f1f1"/><path d="m435.435 326.324c-16.722-9.655-38.105-3.925-47.759 12.797l-16.685 28.898 61.215 33.822 16.026-27.759c9.654-16.721 3.925-38.103-12.797-47.758z" fill="#e20059"/><path d="m63.558 143.498c-9.655 16.722-3.925 38.105 12.797 47.759s38.105 3.925 47.759-12.797l16.754-29.018-15.948-40.104-45.267 6.282z" fill="#fff"/><path d="m144.097 73.924c-16.722-9.654-38.105-3.925-47.759 12.797l-16.685 28.899 61.215 33.822 16.026-27.759c9.655-16.722 3.925-38.104-12.797-47.759z" fill="#ff4a4a"/><path d="m209.226 143.498c-9.655 16.722-3.925 38.105 12.797 47.759 16.722 9.654 38.105 3.925 47.759-12.797l16.754-29.019-15.24-43.542-45.974 9.72z" fill="#fff"/><path d="m367.692 191.258c16.722 9.654 38.105 3.925 47.759-12.797l16.754-29.019-13.118-43.542-48.096 9.72-16.096 27.879c-9.654 16.721-3.925 38.104 12.797 47.759z" fill="#f4f1f1"/><path d="m144.097 326.324c-16.722-9.655-38.105-3.925-47.759 12.797l-16.685 28.898 61.215 33.822 16.026-27.759c9.655-16.721 3.925-38.103-12.797-47.758z" fill="#ff4a4a"/><path d="m448.232 121.684c9.655-16.722 3.925-38.105-12.797-47.759-16.722-9.654-38.105-3.925-47.759 12.797l-16.685 28.898 61.215 33.822z" fill="#e20059"/><path d="m71.839 271.876c8.796 0 15.927-7.131 15.927-15.927s-7.131-15.927-15.927-15.927h-71.839v31.854z" fill="#eceae7"/><path d="m511.898 271.871v-31.843c-.037 0-.072-.006-.109-.006h-71.839c-8.796 0-15.927 7.131-15.927 15.927s7.131 15.927 15.927 15.927h71.839c.037 0 .072-.005.109-.005z" fill="#e7dfdd"/><path d="m255.949 109.145v82.685c5.586-2.971 10.437-7.486 13.834-13.369l16.754-29.019-15.24-43.542z" fill="#f4f1f1"/><path d="m255.949 363.835v80.394c5.586-2.971 10.437-7.486 13.834-13.369l16.754-29.018-15.24-40.104z" fill="#f4f1f1"/><path d="m289.766 326.324c-16.722-9.655-38.105-3.925-47.759 12.797l-16.685 28.898 61.215 33.822 16.026-27.759c9.654-16.721 3.925-38.103-12.797-47.758z" fill="#ff4a4a"/><path d="m289.766 73.924c-16.722-9.654-38.105-3.925-47.759 12.797l-16.685 28.898 61.215 33.822 16.026-27.758c9.654-16.722 3.925-38.104-12.797-47.759z" fill="#ff4a4a"/><g fill="#e20059"><path d="m289.766 73.92c-10.801-6.236-23.543-6.046-33.817-.628v59.245l30.588 16.9 16.026-27.758c9.654-16.722 3.925-38.104-12.797-47.759z"/><path d="m289.766 326.32c-10.801-6.236-23.543-6.046-33.817-.628v59.245l30.588 16.9 16.026-27.759c9.654-16.721 3.925-38.104-12.797-47.758z"/></g></g></svg>