<svg id="Layer_1" enable-background="new 0 0 512 512" height="512" viewBox="0 0 512 512" width="512" xmlns="http://www.w3.org/2000/svg"><g><path d="m8.555 385.635c0 69.79 56.576 126.365 126.365 126.365 69.789 0 126.365-56.575 126.365-126.365v-129.635l-126.365-103.317-126.365 103.317z" fill="#fff5f5"/><path d="m134.92 512c69.789 0 126.365-56.575 126.365-126.365v-129.635l-126.365-103.317z" fill="#f4f1f1"/><path d="m134.92 0c-69.789 0-126.365 56.575-126.365 126.365v129.635h252.73v-129.635c0-69.79-56.576-126.365-126.365-126.365z" fill="#ffd321"/><path d="m384.028 234.228h-28.732l40.485-51.046c3.575-4.509 4.257-10.666 1.753-15.847s-7.751-8.474-13.506-8.474h-59.773c-8.284 0-15 6.716-15 15s6.716 15 15 15h28.732l-40.485 51.046c-3.575 4.509-4.257 10.666-1.753 15.847s7.751 8.474 13.506 8.474h59.773c8.284 0 15-6.716 15-15s-6.716-15-15-15z" fill="#004960"/><path d="m488.445 99.301h-47.715l59.468-74.98c3.575-4.509 4.257-10.666 1.753-15.847s-7.751-8.474-13.506-8.474h-78.756c-8.284 0-15 6.716-15 15s6.716 15 15 15h47.715l-59.468 74.98c-3.575 4.509-4.257 10.666-1.753 15.847s7.751 8.474 13.506 8.474h78.756c8.284 0 15-6.716 15-15s-6.716-15-15-15z" fill="#003140"/><path d="m134.92 0v256h126.365v-129.635c0-69.79-56.576-126.365-126.365-126.365z" fill="#ffb454"/></g></svg>