<svg id="Layer_1" enable-background="new 0 0 512.519 512.519" height="512" viewBox="0 0 512.519 512.519" width="512" xmlns="http://www.w3.org/2000/svg"><g><path d="m458.929 512.519h-61.981l-184.793-256.26 184.794-256.259h61.981c11.548 0 20.909 9.361 20.909 20.909v470.701c-.001 11.547-9.362 20.909-20.91 20.909z" fill="#0a789b"/><path d="m32.68 20.909v470.701c0 11.548 9.361 20.909 20.909 20.909h343.359c11.548 0 20.909-9.361 20.909-20.909v-470.701c0-11.548-9.361-20.909-20.908-20.909h-343.36c-11.547 0-20.909 9.361-20.909 20.909z" fill="#fff5f5"/><path d="m396.948 0h-171.68v512.518h171.68c11.548 0 20.909-9.361 20.909-20.909v-470.7c0-11.548-9.361-20.909-20.909-20.909z" fill="#f4f1f1"/><g><path d="m241.505 254.937c-6.984.001-13.162-4.547-15.232-11.229l-20.964-67.685h-24.038c-6.918 0-13.046-4.46-15.173-11.041l-8.929-27.619-10.182 29.954c-2.198 6.466-8.269 10.815-15.099 10.815h-36.29c-8.807 0-15.947-7.14-15.947-15.947s7.14-15.947 15.947-15.947h24.868l21.983-64.674c2.199-6.47 8.274-10.815 15.098-10.815.04 0 .08 0 .12.001 6.873.051 12.94 4.501 15.054 11.041l20.154 62.34h24.189c6.99 0 13.166 4.552 15.233 11.229l8.729 28.185 27.864-95.781c2.002-6.881 8.371-11.564 15.515-11.491 7.167.091 13.392 4.952 15.218 11.882l17.072 64.781h30.671c8.807 0 15.947 7.14 15.947 15.947s-7.14 15.947-15.947 15.947h-42.959c-7.242 0-13.575-4.88-15.421-11.883l-5.542-21.031-26.627 91.53c-1.967 6.76-8.134 11.431-15.176 11.492-.044-.001-.091-.001-.136-.001z" fill="#ff4a4a"/></g><g><path d="m347.367 322.226h-192.663c-8.807 0-15.947-7.14-15.947-15.947s7.14-15.947 15.947-15.947h192.663c8.807 0 15.947 7.14 15.947 15.947s-7.14 15.947-15.947 15.947z" fill="#004960"/></g><g><path d="m347.367 386.078h-192.663c-8.807 0-15.947-7.14-15.947-15.947s7.14-15.947 15.947-15.947h192.663c8.807 0 15.947 7.14 15.947 15.947s-7.14 15.947-15.947 15.947z" fill="#004960"/></g><g><path d="m347.367 451.224h-192.663c-8.807 0-15.947-7.14-15.947-15.947s7.14-15.947 15.947-15.947h192.663c8.807 0 15.947 7.14 15.947 15.947s-7.14 15.947-15.947 15.947z" fill="#004960"/></g><circle cx="100.166" cy="306.279" fill="#00da80" r="15.947"/><circle cx="100.166" cy="370.131" fill="#00da80" r="15.947"/><circle cx="100.166" cy="433.982" fill="#ff4a4a" r="15.947"/><path d="m347.367 152.934h-30.671l-17.072-64.781c-1.826-6.93-8.051-11.79-15.218-11.882-7.144-.073-13.513 4.61-15.515 11.491l-27.864 95.781-8.729-28.185c-1.19-3.843-3.745-6.976-7.029-8.948v94.055l1.004 3.242c2.069 6.682 8.248 11.23 15.232 11.229.046 0 .093 0 .138-.001 7.041-.061 13.208-4.732 15.176-11.492l26.627-91.53 5.542 21.031c1.846 7.003 8.179 11.883 15.421 11.883h42.959c8.807 0 15.947-7.14 15.947-15.947-.001-8.806-7.141-15.946-15.948-15.946z" fill="#e20059"/><g fill="#003140"><path d="m347.367 290.332h-122.098v31.894h122.098c8.807 0 15.947-7.14 15.947-15.947s-7.14-15.947-15.947-15.947z"/><path d="m347.367 354.184h-122.098v31.894h122.098c8.807 0 15.947-7.14 15.947-15.947s-7.14-15.947-15.947-15.947z"/><path d="m347.367 419.33h-122.098v31.894h122.098c8.807 0 15.947-7.14 15.947-15.947s-7.14-15.947-15.947-15.947z"/></g></g></svg>