<svg id="Layer_1" enable-background="new 0 0 512 512" height="512" viewBox="0 0 512 512" width="512" xmlns="http://www.w3.org/2000/svg"><g><path d="m122.917.56-84.948 23.601c-7.209 2.002-11.879 8.963-10.999 16.392l19.566 165.189 114.834-31.662-19.34-160.723c-1.11-9.217-10.168-15.283-19.113-12.797z" fill="#004960"/><path d="m229.268 367.441c-10.612 0-19.469-8.099-20.416-18.668l-22.884-255.292c-1.142-12.736-13.538-21.329-25.864-17.931l-135.814 37.447c-9.525 2.626-15.821 11.674-14.974 21.519l30.88 358.744c.913 10.6 9.784 18.74 20.423 18.74h242.379l37.188-72.28-37.188-72.28h-73.73z" fill="#00ecce"/><circle cx="459.4" cy="497" fill="#eceae7" r="15"/><g fill="#f4f1f1"><circle cx="429.4" cy="438.593" r="15"/><circle cx="459.4" cy="377.917" r="15"/><circle cx="487.761" cy="438.593" r="15"/></g><path d="m40.196 493.26c.913 10.6 9.784 18.74 20.423 18.74h242.378l37.188-72.28-.58-1.127h-304.114z" fill="#00d5dd"/><path d="m429.4 453.593c8.284 0 15-6.716 15-15h-30c0 8.284 6.716 15 15 15z" fill="#eceae7"/><path d="m487.761 453.593c8.284 0 15-6.716 15-15h-30c0 8.284 6.715 15 15 15z" fill="#eceae7"/><circle cx="113.772" cy="438.82" fill="#fff5f5" r="16.785"/><circle cx="108.448" cy="375.816" fill="#fff5f5" r="16.785"/><path d="m96.987 438.82c0 9.27 7.515 16.785 16.785 16.785s16.785-7.515 16.785-16.785c0-.077-.01-.151-.011-.227h-33.547c-.001.076-.012.15-.012.227z" fill="#f4f1f1"/><path d="m367.638 367.441h-64.641v144.559h64.641c11.321 0 20.498-9.177 20.498-20.498v-103.564c0-11.32-9.177-20.497-20.498-20.497z" fill="#004960"/><path d="m302.997 438.593v73.407h64.641c11.321 0 20.498-9.177 20.498-20.498v-52.909z" fill="#003140"/></g></svg>