<svg id="Layer_1" enable-background="new 0 0 511.875 511.875" height="512" viewBox="0 0 511.875 511.875" width="512" xmlns="http://www.w3.org/2000/svg"><g><path d="m323.644 174.804v-159.794l-65.276.014-65.273-.014v157.741c-43.733 17.636-78.345 53.126-94.811 97.439l157.654 85.726 157.654-85.726c-15.85-42.657-48.518-77.137-89.948-95.386z" fill="#fff5f5"/><path d="m323.644 174.804v-159.794l-65.276.014h-2.429v340.894l157.654-85.726c-15.851-42.659-48.519-77.139-89.949-95.388z" fill="#f4f1f1"/><path d="m98.284 270.191c-6.775 18.232-10.483 37.956-10.483 58.548 0 92.859 75.277 168.136 168.136 168.136s168.136-75.277 168.136-168.136c0-20.592-3.706-40.316-10.48-58.548z" fill="#00ecce"/><path d="m255.939 270.191v226.684c92.859-.001 168.135-75.278 168.135-168.136 0-20.592-3.706-40.316-10.48-58.548z" fill="#00d5dd"/><path d="m255.938 511.875c-100.982 0-183.136-82.155-183.136-183.137 0-37.236 11.114-73.077 32.141-103.649 18.577-27.011 43.724-48.341 73.153-62.156v-147.923c0-3.979 1.581-7.794 4.395-10.608 2.813-2.812 6.628-4.392 10.605-4.392h.003l65.273.014 65.27-.014c3.979-.001 7.795 1.579 10.608 4.392 2.814 2.813 4.395 6.629 4.395 10.608v150.302c61.327 31.058 100.43 94.159 100.43 163.426-.001 100.982-82.156 183.137-183.137 183.137zm-47.843-481.862v142.738c0 6.118-3.716 11.624-9.39 13.912-27.996 11.289-51.871 30.456-69.045 55.426-17.571 25.548-26.859 55.511-26.859 86.649 0 84.44 68.697 153.137 153.136 153.137s153.136-68.697 153.136-153.137c0-60.695-35.907-115.729-91.477-140.207-5.441-2.396-8.953-7.781-8.953-13.727v-144.791l-50.272.011z" fill="#fff5f5"/><path d="m338.644 165.312v-150.302c0-3.979-1.581-7.794-4.395-10.608-2.813-2.813-6.63-4.393-10.608-4.392l-65.27.014h-2.433v30l2.433.001 50.272-.011v144.791c0 5.946 3.512 11.331 8.953 13.727 55.57 24.478 91.477 79.512 91.477 140.207 0 84.439-68.696 153.136-153.135 153.137v30c100.981-.001 183.135-82.155 183.135-183.137.001-69.268-39.102-132.369-100.429-163.427z" fill="#f4f1f1"/><ellipse cx="184.976" cy="330.67" fill="#00d5dd" rx="15" ry="15.019"/><ellipse cx="204.805" cy="383.51" fill="#00d5dd" rx="15" ry="15.019"/><g><path d="m347.266 30h-182.657c-8.284 0-15-6.716-15-15s6.716-15 15-15h182.657c8.284 0 15 6.716 15 15s-6.716 15-15 15z" fill="#eceae7"/></g><path d="m347.266 0h-91.327v30h91.327c8.284 0 15-6.716 15-15s-6.716-15-15-15z" fill="#e7dfdd"/><path d="m280.686 368.489c0 18.477 14.959 33.453 33.41 33.453 18.452 0 33.41-14.976 33.41-33.453 0-18.473-14.958-33.449-33.41-33.449-18.451.001-33.41 14.977-33.41 33.449z" fill="#00c6cb"/><g><path d="m235.8 89.039c8.284 0 15-6.716 15-15s-6.716-15-15-15h-57.704v30z" fill="#eceae7"/></g><g><path d="m235.8 150.667c8.284 0 15-6.716 15-15s-6.716-15-15-15h-57.704v30z" fill="#eceae7"/></g></g></svg>