<svg id="Layer_1" enable-background="new 0 0 511.345 511.345" height="512" viewBox="0 0 511.345 511.345" width="512" xmlns="http://www.w3.org/2000/svg"><g><path d="m481.395 75.085-46.7-46.7c-2.813-2.813-6.628-4.394-10.606-4.394s-7.793 1.581-10.606 4.394l-92.439 92.439c-5.858 5.858-5.858 15.355 0 21.213l46.7 46.7c2.929 2.929 6.768 4.394 10.606 4.394s7.678-1.464 10.606-4.394l92.439-92.439c2.813-2.813 4.394-6.628 4.394-10.606s-1.581-7.794-4.394-10.607z" fill="#f4f1f1"/><path d="m485.789 85.692c0-3.978-1.581-7.793-4.394-10.606l-22.189-22.189-113.848 113.456 22.385 22.385c2.929 2.929 6.768 4.394 10.606 4.394s7.678-1.464 10.606-4.394l92.439-92.439c2.814-2.814 4.395-6.629 4.395-10.607z" fill="#eceae7"/><path d="m251.405 109.714h121.368v175.955h-121.368z" fill="#fff5f5" transform="matrix(.707 -.707 .707 .707 -48.38 278.583)"/><path d="m206.97 178.392-130.152 130.152 17.215 17.215 107.204 107.203 130.152-130.151z" fill="#bee75e"/><g><path d="m276.91 182.536c-3.839 0-7.678-1.464-10.606-4.394l-29.542-29.542c-5.858-5.858-5.858-15.355 0-21.213 5.857-5.858 15.355-5.858 21.213 0l29.542 29.542c5.858 5.858 5.858 15.355 0 21.213-2.929 2.93-6.768 4.394-10.607 4.394z" fill="#eceae7"/></g><g><path d="m150.647 308.799c-3.839 0-7.678-1.464-10.606-4.394l-29.542-29.542c-5.858-5.858-5.858-15.355 0-21.213 5.857-5.858 15.355-5.858 21.213 0l29.542 29.542c5.858 5.858 5.858 15.355 0 21.213-2.929 2.929-6.768 4.394-10.607 4.394z" fill="#00da80"/></g><g><path d="m195.366 264.081c-3.839 0-7.678-1.464-10.606-4.394l-29.542-29.542c-5.858-5.858-5.858-15.355 0-21.213 5.857-5.858 15.355-5.858 21.213 0l29.542 29.542c5.858 5.858 5.858 15.355 0 21.213-2.93 2.929-6.769 4.394-10.607 4.394z" fill="#00da80"/></g><g><path d="m236.51 222.936c-3.839 0-7.678-1.464-10.606-4.394l-29.542-29.542c-5.858-5.858-5.858-15.355 0-21.213 5.857-5.858 15.355-5.858 21.213 0l29.542 29.542c5.858 5.858 5.858 15.355 0 21.213-2.929 2.929-6.768 4.394-10.607 4.394z" fill="#eceae7"/></g><g><path d="m15 510.563c-3.839 0-7.677-1.464-10.606-4.394-5.858-5.858-5.858-15.355 0-21.213l80.599-80.598c5.858-5.858 15.355-5.857 21.213 0 5.858 5.858 5.858 15.355 0 21.213l-80.599 80.598c-2.929 2.929-6.769 4.394-10.607 4.394z" fill="#f4f1f1"/></g><path d="m111.249 342.974c-21.64 21.64-43.82 43.82-43.82 43.82l57.123 57.123 43.82-43.82z" fill="#00da80"/><path d="m4.398 506.169c2.929 2.929 6.767 4.394 10.606 4.394 3.838 0 7.678-1.465 10.606-4.394l80.599-80.598c5.803-5.803 5.849-15.173.154-21.043l-101.978 101.627c.004.005.008.01.013.014z" fill="#eceae7"/><path d="m124.551 443.917 43.821-43.82-28.734-28.733-43.896 43.744z" fill="#00b4bc"/><path d="m201.237 432.962 130.152-130.151-61.374-61.375-130.377 129.928z" fill="#00da80"/><path d="m331.389 302.811 85.82-85.821-61.226-61.226-85.968 85.672z" fill="#f4f1f1"/><g><path d="m496.346 126.249c-3.839 0-7.678-1.464-10.606-4.394l-95.466-95.466c-5.858-5.858-5.858-15.355 0-21.213 5.857-5.858 15.355-5.858 21.213 0l95.466 95.466c5.858 5.858 5.858 15.355 0 21.213-2.93 2.929-6.769 4.394-10.607 4.394z" fill="#004960"/></g><path d="m485.739 121.855c2.929 2.929 6.768 4.394 10.606 4.394s7.678-1.464 10.606-4.394c5.858-5.858 5.858-15.355 0-21.213l-47.745-47.745-21.25 21.176z" fill="#003140"/><path d="m247.118 218.54-40.148-40.148-10.609 10.608 29.542 29.542c2.929 2.929 6.768 4.394 10.606 4.394s7.678-1.464 10.606-4.394c.002 0 .002-.001.003-.002z" fill="#00da80"/><path d="m427.815 206.384-124.418-124.419c-5.857-5.858-15.355-5.858-21.213 0l-85.82 85.82-130.152 130.152c-2.813 2.813-4.394 6.628-4.394 10.606s1.581 7.793 4.394 10.606l17.211 17.211c.001.001.003.003.004.004l6.609 6.609-33.214 33.214c-5.858 5.858-5.858 15.355 0 21.213l57.123 57.123c2.929 2.929 6.768 4.394 10.606 4.394s7.678-1.464 10.606-4.394l33.214-33.213 22.259 22.258c.355.355.726.69 1.111 1.005.298.245.609.464.922.682.089.062.171.132.261.192.376.251.763.478 1.156.692.034.018.065.041.099.059.402.214.813.405 1.229.581.032.014.063.031.096.044.399.165.805.306 1.214.435.057.018.113.042.17.06.381.115.768.206 1.156.29.092.02.181.048.273.067.378.075.758.125 1.139.17.105.013.209.035.315.045.976.095 1.959.095 2.934 0 .104-.01.205-.032.309-.044.383-.045.766-.096 1.145-.171.09-.018.177-.045.266-.065.39-.084.779-.176 1.163-.292.055-.017.107-.039.162-.057.412-.13.82-.272 1.222-.438.029-.012.056-.027.085-.04.42-.176.834-.369 1.239-.586.03-.016.059-.036.089-.052.396-.215.786-.444 1.166-.698.087-.058.168-.127.254-.187.314-.22.628-.441.929-.688.385-.315.756-.65 1.111-1.005l215.972-215.972c5.856-5.856 5.856-15.353-.002-21.211zm-303.264 216.32-35.91-35.91 22.607-22.607 35.91 35.91zm77.153-11.422-103.205-103.205 194.291-194.292 103.205 103.205z" fill="#fff5f5"/><path d="m395.995 216.99-194.291 194.292-50.973-50.973-21.718 21.643 18.145 18.145-22.607 22.607-18.184-18.184-21.25 21.177 28.828 28.828c2.929 2.929 6.768 4.394 10.606 4.394s7.678-1.464 10.606-4.394l33.214-33.213 22.259 22.258c.355.355.726.69 1.111 1.005.298.245.609.464.922.682.089.062.171.132.261.192.376.251.763.478 1.156.692.034.018.065.041.099.059.402.214.813.405 1.229.581.032.014.063.031.096.044.399.165.805.306 1.214.435.057.018.113.042.17.06.381.115.768.206 1.156.29.092.02.181.048.273.067.378.075.758.125 1.139.17.105.013.209.035.315.045.976.095 1.959.095 2.934 0 .104-.01.205-.032.309-.044.383-.045.766-.096 1.145-.171.09-.018.177-.045.266-.065.39-.084.779-.176 1.163-.292.055-.017.107-.039.162-.057.412-.13.82-.272 1.222-.438.029-.012.056-.027.085-.04.42-.176.834-.369 1.239-.586.03-.016.059-.036.089-.052.396-.215.786-.444 1.166-.698.087-.058.168-.127.254-.187.314-.22.628-.441.929-.688.385-.315.756-.65 1.111-1.005l215.972-215.972c5.858-5.858 5.858-15.355 0-21.213l-61.207-61.207-21.25 21.177z" fill="#f4f1f1"/><g><path d="m463.409 278.19c-3.839 0-7.677-1.464-10.606-4.394l-216.479-216.479c-5.858-5.858-5.858-15.355 0-21.213 5.857-5.858 15.355-5.857 21.213 0l216.479 216.479c5.858 5.858 5.858 15.355 0 21.213-2.929 2.93-6.769 4.394-10.607 4.394z" fill="#004960"/></g><path d="m474.016 252.584-107.408-107.408-21.25 21.176 107.444 107.444c2.929 2.929 6.767 4.394 10.606 4.394 3.838 0 7.678-1.465 10.606-4.394 5.859-5.857 5.859-15.354.002-21.212z" fill="#003140"/></g></svg>