<svg id="Layer_1" enable-background="new 0 0 511.199 511.199" height="512" viewBox="0 0 511.199 511.199" width="512" xmlns="http://www.w3.org/2000/svg"><g><g><path d="m276.212 433.986c-8.284 0-15-6.716-15-15v-161.723c0-8.284 6.716-15 15-15s15 6.716 15 15v161.723c0 8.284-6.716 15-15 15z" fill="#0a789b"/></g><path d="m291.212 418.986v-161.723c0-8.284-6.716-15-15-15v191.723c8.284 0 15-6.716 15-15z" fill="#0a617d"/><path d="" style="fill:none;stroke:#000;stroke-width:30;stroke-linecap:round;stroke-linejoin:round;stroke-miterlimit:10"/><g><path d="m468.577 77.559c-12.494 0-21.826-5.02-30.061-9.449-6.948-3.738-12.438-6.69-19.343-6.69-16.489 0-27.78 6.492-27.893 6.558l.114-.069-15.619-25.613c1.825-1.113 18.553-10.876 43.397-10.876 14.462 0 25.048 5.694 33.555 10.27 6.765 3.639 11.149 5.869 15.849 5.869 8.284 0 15 6.716 15 15s-6.714 15-14.999 15z" fill="#e20059"/></g><path d="m481.4 454.11h-273.492l10.495.198h-60.524c-13.193 0-24.469-10.238-24.943-23.423-.497-13.812 10.595-25.206 24.299-25.206h215.591c52.068 0 94.895-42.331 94-94.391-.866-50.387-41.74-91.107-92.334-91.107h-14.983-207.44c-40.311 0-73.975-32.01-74.564-72.317-.599-40.976 32.559-74.501 73.401-74.501h70.356c22.458 0 44.82 3.997 65.58 12.565 12.593 5.197 27.839 8.239 44.268 8.239 43.253 0 78.317-21.08 78.317-47.083s-35.064-47.084-78.318-47.084c-14.876 0-28.776 2.497-40.617 6.828-18.076 6.613-37.266 9.643-56.514 9.643h-81.59c-71.928 0-131.394 57.66-131.78 129.587-.388 72.173 58.212 131.012 130.297 131.012h222.385c20.975 0 37.888 17.17 36.588 38.105-1.164 18.73-16.771 33.612-35.79 33.612h-215.769c-44.734 0-81.879 35.72-82.287 80.453-.411 45.121 36.174 81.958 81.202 81.958h229.763l-27.473-.017h46.456c32.867 0 63.72-15.839 82.876-42.547 4.355-6.071.016-14.524-7.456-14.524z" fill="#bee75e"/><g fill="#00da80"><path d="m466.825 311.288c-.866-50.387-41.74-91.107-92.334-91.107h-98.279v56.891h97.079c20.975 0 37.888 17.17 36.588 38.105-1.163 18.73-16.771 33.612-35.79 33.612h-97.877v56.891h96.614c52.067-.001 94.894-42.333 93.999-94.392z"/><path d="m481.4 454.11h-205.188v57.089h110.785l-27.473-.017h46.456c32.867 0 63.72-15.839 82.876-42.547 4.355-6.072.016-14.525-7.456-14.525z"/><path d="m331.109 0c-14.875 0-28.776 2.497-40.617 6.828-4.691 1.716-9.458 3.186-14.281 4.429v70.736c3.583 1.187 7.131 2.49 10.63 3.934 12.593 5.197 27.839 8.239 44.268 8.239 43.253 0 78.317-21.08 78.317-47.083s-35.064-47.083-78.317-47.083z"/></g><path d="m276.212 419.88c-47.762 0-86.619 35.234-86.619 78.542 0 7.056 6.308 12.776 14.09 12.776h145.057c7.782 0 14.09-5.72 14.09-12.776 0-43.308-38.856-78.542-86.618-78.542z" fill="#004960"/><path d="m348.74 511.199c7.782 0 14.09-5.72 14.09-12.776 0-43.308-38.856-78.542-86.618-78.542v91.319h72.528z" fill="#003140"/><path d="m399.003 141.375c-3.038-3.038-7.159-4.746-11.456-4.746l-223.437.001c-8.948 0-16.202 7.254-16.202 16.202 0 70.535 57.385 127.919 127.921 127.919 70.535 0 127.92-57.385 127.92-127.92 0-4.297-1.707-8.418-4.746-11.456z" fill="#004960"/><g><path d="m419.12 169.033h-285.816c-8.948 0-16.202-7.254-16.202-16.202s7.254-16.202 16.202-16.202h285.816c8.948 0 16.202 7.254 16.202 16.202s-7.254 16.202-16.202 16.202z" fill="#0a789b"/></g><path d="m387.547 136.629h-111.335v144.117c70.359-.208 127.537-57.508 127.537-127.915 0-4.297-1.707-8.418-4.746-11.456-3.037-3.039-7.159-4.746-11.456-4.746z" fill="#003140"/><path d="m419.12 136.629h-142.908v32.404h142.908c8.948 0 16.202-7.254 16.202-16.202s-7.254-16.202-16.202-16.202z" fill="#0a617d"/></g></svg>